<svg xmlns="http://www.w3.org/2000/svg" viewBox="0 0 24 24" fill="none" stroke="currentColor" stroke-width="1.75" stroke-linecap="round" stroke-linejoin="round">
  <path d="M8.25 5 C8.25 6.24264 7.24264 7.25 6 7.25 C4.75736 7.25 3.75 6.24264 3.75 5 C3.75 3.75736 4.75736 2.75 6 2.75 C7.24264 2.75 8.25 3.75736 8.25 5 Z" />
  <path d="M8.25 19 C8.25 20.2426 7.24264 21.25 6 21.25 C4.75736 21.25 3.75 20.2426 3.75 19 C3.75 17.7574 4.75736 16.75 6 16.75 C7.24264 16.75 8.25 17.7574 8.25 19 Z" />
  <path d="M20.25 19 C20.25 20.2426 19.2426 21.25 18 21.25 C16.7574 21.25 15.75 20.2426 15.75 19 C15.75 17.7574 16.7574 16.75 18 16.75 C19.2426 16.75 20.25 17.7574 20.25 19 Z" />
  <path d="M6 7.25 V16.75" />
  <path d="M14.5 6 H14.6" />
  <path d="M18 10 V10.1" />
  <path d="M18 14 V14.1" />
</svg>
